<svg xmlns="http://www.w3.org/2000/svg" viewBox="0 0 32 32">
  <defs>
    <linearGradient id="g" x1="0" y1="0" x2="32" y2="32" gradientUnits="userSpaceOnUse">
      <stop offset="0%" stop-color="#3B82F6"/>
      <stop offset="100%" stop-color="#0EA5E9"/>
    </linearGradient>
  </defs>
  <rect width="32" height="32" rx="8" fill="#0F1117"/>
  <rect width="32" height="32" rx="8" fill="url(#g)" opacity="0.15"/>
  <g fill="white">
    <path d="M16,16 C14,13 11.5,9 16,4 C20.5,9 18,13 16,16Z" opacity="0.9"/>
    <path d="M16,16 C14,13 11.5,9 16,4 C20.5,9 18,13 16,16Z" opacity="0.9" transform="rotate(72 16 16)"/>
    <path d="M16,16 C14,13 11.5,9 16,4 C20.5,9 18,13 16,16Z" opacity="0.9" transform="rotate(144 16 16)"/>
    <path d="M16,16 C14,13 11.5,9 16,4 C20.5,9 18,13 16,16Z" opacity="0.9" transform="rotate(216 16 16)"/>
    <path d="M16,16 C14,13 11.5,9 16,4 C20.5,9 18,13 16,16Z" opacity="0.9" transform="rotate(288 16 16)"/>
    <circle cx="16" cy="16" r="3"/>
  </g>
</svg>
