<svg xmlns="http://www.w3.org/2000/svg" viewBox="0 0 60 60">
  <defs>
    <linearGradient id="g" x1="0" y1="0" x2="60" y2="60" gradientUnits="userSpaceOnUse">
      <stop offset="0%" stop-color="#3B82F6"/>
      <stop offset="100%" stop-color="#0EA5E9"/>
    </linearGradient>
  </defs>
  <rect width="60" height="60" rx="14" fill="url(#g)"/>
  <g fill="white">
    <path d="M30,30 C27.5,26.5 24.5,20.5 30,13 C35.5,20.5 32.5,26.5 30,30Z" opacity="0.9"/>
    <path d="M30,30 C27.5,26.5 24.5,20.5 30,13 C35.5,20.5 32.5,26.5 30,30Z" opacity="0.9" transform="rotate(72 30 30)"/>
    <path d="M30,30 C27.5,26.5 24.5,20.5 30,13 C35.5,20.5 32.5,26.5 30,30Z" opacity="0.9" transform="rotate(144 30 30)"/>
    <path d="M30,30 C27.5,26.5 24.5,20.5 30,13 C35.5,20.5 32.5,26.5 30,30Z" opacity="0.9" transform="rotate(216 30 30)"/>
    <path d="M30,30 C27.5,26.5 24.5,20.5 30,13 C35.5,20.5 32.5,26.5 30,30Z" opacity="0.9" transform="rotate(288 30 30)"/>
    <circle cx="30" cy="30" r="5.5"/>
  </g>
</svg>
