<svg xmlns="http://www.w3.org/2000/svg" viewBox="0 0 760 950" width="760" height="950" preserveAspectRatio="xMidYMid slice">
<defs>
<linearGradient id="bg" x1="0" y1="0" x2="1" y2="1">
<stop offset="0" stop-color="#11151f"></stop><stop offset="1" stop-color="#0a0d13"></stop>
</linearGradient>
<radialGradient id="glow" cx="50%" cy="40%" r="58%">
<stop offset="0" stop-color="#0EA5E9" stop-opacity="0.30"></stop>
<stop offset="55%" stop-color="#3B82F6" stop-opacity="0.10"></stop>
<stop offset="100%" stop-color="#0EA5E9" stop-opacity="0"></stop>
</radialGradient>
<linearGradient id="ink" x1="0" y1="0" x2="1" y2="1">
<stop offset="0" stop-color="#9bdcfb"></stop><stop offset="1" stop-color="#4f93f7"></stop>
</linearGradient>
<pattern id="grid" width="38" height="38" patternUnits="userSpaceOnUse">
<path d="M38 0H0V38" fill="none" stroke="#ffffff" stroke-opacity="0.035" stroke-width="1"></path>
</pattern>
<filter id="soft" x="-60%" y="-60%" width="220%" height="220%"><feGaussianBlur stdDeviation="7"></feGaussianBlur></filter>
</defs>
<rect width="760" height="950" fill="url(#bg)"></rect>
<rect width="760" height="950" fill="url(#grid)"></rect>
<rect width="760" height="950" fill="url(#glow)"></rect><circle cx="380" cy="360" r="200" fill="none" stroke="#ffffff" stroke-opacity="0.07" stroke-width="1.4"></circle><circle cx="380" cy="360" r="144" fill="none" stroke="#ffffff" stroke-opacity="0.05" stroke-width="1.4"></circle><g transform="translate(380,360) scale(17) translate(-12,-12)" fill="none" stroke-linecap="round" stroke-linejoin="round" stroke-width="0.95" stroke="#0EA5E9" stroke-opacity="0.55" filter="url(#soft)"><path d="M12 2L4 7v5c0 4.5 3.2 7.8 8 9 4.8-1.2 8-4.5 8-9V7l-8-5z"></path><path d="M9.5 12.5l1.8 1.8 3.5-3.8"></path></g><g transform="translate(380,360) scale(17) translate(-12,-12)" fill="none" stroke-linecap="round" stroke-linejoin="round" stroke-width="0.95" stroke="url(#ink)"><path d="M12 2L4 7v5c0 4.5 3.2 7.8 8 9 4.8-1.2 8-4.5 8-9V7l-8-5z"></path><path d="M9.5 12.5l1.8 1.8 3.5-3.8"></path></g><g transform="translate(180,720) scale(4.6) translate(-12,-12)" fill="none" stroke-linecap="round" stroke-linejoin="round" stroke-width="1.2" stroke="#0EA5E9" stroke-opacity="0.55" filter="url(#soft)"><rect x="2" y="4" width="20" height="9" rx="2"></rect><path d="M5 9h14"></path><path d="M6 16.5c1.5 0 1.5 1.5 3 1.5"></path><path d="M12 16.5c1.5 0 1.5 1.5 3 1.5"></path><path d="M16 17c.8-.5 1.2-1 2-1"></path></g><g transform="translate(180,720) scale(4.6) translate(-12,-12)" fill="none" stroke-linecap="round" stroke-linejoin="round" stroke-width="1.2" stroke="url(#ink)"><rect x="2" y="4" width="20" height="9" rx="2"></rect><path d="M5 9h14"></path><path d="M6 16.5c1.5 0 1.5 1.5 3 1.5"></path><path d="M12 16.5c1.5 0 1.5 1.5 3 1.5"></path><path d="M16 17c.8-.5 1.2-1 2-1"></path></g><g transform="translate(380,720) scale(4.6) translate(-12,-12)" fill="none" stroke-linecap="round" stroke-linejoin="round" stroke-width="1.2" stroke="#0EA5E9" stroke-opacity="0.55" filter="url(#soft)"><rect x="5" y="2" width="14" height="20" rx="2"></rect><path d="M5 9h14"></path><path d="M8 5v2"></path><path d="M8 12v3"></path></g><g transform="translate(380,720) scale(4.6) translate(-12,-12)" fill="none" stroke-linecap="round" stroke-linejoin="round" stroke-width="1.2" stroke="url(#ink)"><rect x="5" y="2" width="14" height="20" rx="2"></rect><path d="M5 9h14"></path><path d="M8 5v2"></path><path d="M8 12v3"></path></g><g transform="translate(580,720) scale(4.6) translate(-12,-12)" fill="none" stroke-linecap="round" stroke-linejoin="round" stroke-width="1.2" stroke="#0EA5E9" stroke-opacity="0.55" filter="url(#soft)"><rect x="4" y="2" width="16" height="20" rx="2"></rect><circle cx="12" cy="14" r="4.5"></circle><circle cx="12" cy="14" r="1.6"></circle><path d="M7 5.5h.01"></path><path d="M10 5.5h.01"></path></g><g transform="translate(580,720) scale(4.6) translate(-12,-12)" fill="none" stroke-linecap="round" stroke-linejoin="round" stroke-width="1.2" stroke="url(#ink)"><rect x="4" y="2" width="16" height="20" rx="2"></rect><circle cx="12" cy="14" r="4.5"></circle><circle cx="12" cy="14" r="1.6"></circle><path d="M7 5.5h.01"></path><path d="M10 5.5h.01"></path></g><line x1="110" y1="720" x2="650" y2="720" stroke="#ffffff" stroke-opacity="0.06" stroke-width="1.4"></line></svg>